<svg xmlns="http://www.w3.org/2000/svg" width="50" height="38"><g data-name="グループ 2254"><g data-name="グループ 2179"><g data-name="前面オブジェクトで型抜き 2" fill="#a3a3a3"><path d="M37.001 9.25H9.75v-2c0-3.033 2.25-5.5 5.015-5.5H30.757l.075.082 6.353 6.999.38.418L37 9.25z"/><path d="M37.001 9L37 9 30.647 2H14.765C12.137 2 10 4.355 10 7.25V9H37.001m0 .5H9.5V7.25c0-3.17 2.362-5.75 5.265-5.75H30.868l.15.164 6.352 6.999.759.836L37 9.5z" fill="#d7d7d7"/></g><g data-name="前面オブジェクトで型抜き 1" fill="#bdbdbd"><path d="M32.001 8.25H4.75v-2C4.75 3.217 7 .75 9.765.75H25.757l.075.082 6.353 6.999.38.418L32 8.25z"/><path d="M32.001 8L32 8 25.647 1H9.765C7.137 1 5 3.355 5 6.25V8H32.001m0 .5H4.5V6.25C4.5 3.08 6.862.5 9.765.5H25.868l.15.164 6.352 6.999.759.836L32 8.5z" fill="#d7d7d7"/></g><g data-name="Icon awesome-folder" fill="#c9c8c8"><path d="M45.312 37.75H4.688C2.24 37.75.25 35.731.25 33.25V4.75c0-2.481 1.99-4.5 4.438-4.5h15.52l6.177 6.259.073.074h18.855c2.446 0 4.437 2.019 4.437 4.5V33.25c0 2.481-1.99 4.5-4.438 4.5z"/><path d="M4.688.5C2.377.5.5 2.407.5 4.75v28.5c0 2.343 1.879 4.25 4.188 4.25h40.624c2.31 0 4.188-1.907 4.188-4.25V11.083c0-2.343-1.879-4.25-4.188-4.25H26.353l-.146-.148L20.103.5H4.687m0-.5h15.625l6.25 6.333h18.75c2.59 0 4.688 2.127 4.688 4.75V33.25c0 2.623-2.099 4.75-4.688 4.75H4.688C2.098 38 0 35.873 0 33.25V4.75C0 2.127 2.099 0 4.688 0z" fill="#d7d7d7"/></g></g><g data-name="グループ 2180"><g data-name="長方形 2023" transform="translate(0 4)" fill="#bdbdbd" stroke="#d7d7d7" stroke-width=".5"><rect width="50" height="34" rx="1" stroke="none"/><rect x=".25" y=".25" width="49.5" height="33.5" rx=".75" fill="none"/></g></g></g></svg>