<svg xmlns="http://www.w3.org/2000/svg" width="18.667" height="14"><path data-name="Icon awesome-folder" d="M16.917 2.333h-7L7.583 0H1.75A1.75 1.75 0 000 1.75v10.5A1.75 1.75 0 001.75 14h15.167a1.75 1.75 0 001.75-1.75V4.083a1.75 1.75 0 00-1.75-1.75z" fill="#f1f1f1"/><path data-name="Icon awesome-history" d="M13.4 7.993a4 4 0 01-6.51 3.122.387.387 0 01-.03-.574l.178-.182a.388.388 0 01.514-.032 2.968 2.968 0 10-.185-4.489l.819.819a.258.258 0 01-.182.441H5.659a.258.258 0 01-.258-.26V4.494a.258.258 0 01.437-.182l.8.8A4 4 0 0113.4 7.993zm-2.917 1.271l.158-.2a.387.387 0 00-.068-.543l-.656-.511V6.323a.387.387 0 00-.387-.385h-.259a.387.387 0 00-.387.387v2.186l1.054.821a.387.387 0 00.543-.068z" fill="#424243"/></svg>