<svg xmlns="http://www.w3.org/2000/svg" width="13.442" height="12"><g fill="#424243"><path data-name="パス 3358" d="M1.853 12h5.111a.251.251 0 00.251-.251V11a.251.251 0 00-.251-.251H1.853a.6.6 0 01-.6-.6V1.855a.6.6 0 01.6-.6h5.111A.251.251 0 007.215 1V.247A.251.251 0 006.964 0H1.853A1.855 1.855 0 000 1.853v8.294A1.855 1.855 0 001.853 12z"/><path data-name="パス 3359" d="M8.368 9.075l4.948-2.857a.251.251 0 000-.434L8.368 2.926a.251.251 0 00-.376.217v1.33H3.721a.251.251 0 00-.251.251v2.552a.251.251 0 00.251.251h4.271v1.33a.251.251 0 00.376.218z"/></g></svg>