<svg xmlns="http://www.w3.org/2000/svg" width="17.997" height="18"><path d="M10.686 6.749v1.125a.423.423 0 01-.422.422H8.3v1.969a.423.423 0 01-.422.422H6.749a.423.423 0 01-.422-.422V8.3H4.359a.423.423 0 01-.422-.422V6.749a.423.423 0 01.422-.422h1.969V4.359a.423.423 0 01.422-.422h1.124a.423.423 0 01.422.422v1.969h1.969a.423.423 0 01.421.421zm7.066 10.008l-.995.995a.84.84 0 01-1.192 0l-3.508-3.5a.843.843 0 01-.246-.6v-.573a7.308 7.308 0 111.266-1.266h.573a.843.843 0 01.6.246l3.5 3.5a.851.851 0 01.002 1.198zm-5.66-9.446a4.781 4.781 0 10-4.781 4.781 4.777 4.777 0 004.782-4.78z" fill="#f1f1f1"/></svg>