<svg xmlns="http://www.w3.org/2000/svg" width="180.252" height="36"><g data-name="グループ 2284"><g data-name="グループ 2258" fill="#f1f1f1"><path data-name="パス 3367" d="M3.564 11.474l1.031.715c.131.092.193.038.262-.06l.121-.172a.035.035 0 01.052-.012l.1.072c.025.017.021.039 0 .064-.035.049-.162.2-.433.588-.288.408-.4.6-.432.638-.017.025-.031.027-.052.012l-.11-.078c-.016-.011-.019-.026 0-.05l.115-.164c.058-.082.113-.177.014-.272a52.886 52.886 0 00-1.149-.835l-.286-.2c-.1-.069-.839-.58-.9-.613-.107-.057-.176-.045-.257.069l-.15.213c-.017.025-.031.027-.052.013l-.106-.075c-.02-.014-.023-.029-.011-.045.035-.049.2-.253.479-.653s.357-.532.4-.589a.038.038 0 01.06-.007l.094.066a.037.037 0 01.01.056l-.11.155c-.063.09-.077.178 0 .233l.983.706z"/><path data-name="パス 3368" d="M7.028 9.349c.05.049.1.07.128.1s.022.064 0 .113a2.9 2.9 0 01-.765 1.241 1.924 1.924 0 01-1.425.615 1.9 1.9 0 01-1.29-.63 1.688 1.688 0 01-.494-1.292 2.04 2.04 0 01.651-1.354 1.84 1.84 0 01.91-.535c.074-.011.085-.043.077-.092l-.015-.1c-.007-.042-.007-.064.014-.085s.064-.022.092.007l.746.668c.028.028.046.046.036.063l-.07.1c-.018.025-.035.022-.064.007a1.981 1.981 0 00-.772-.2 1.129 1.129 0 00-.833.343 1.028 1.028 0 00-.321.878 1.749 1.749 0 00.514 1.087 1.983 1.983 0 001.3.658 1.083 1.083 0 00.8-.329 1.367 1.367 0 00.386-.575c.035-.12-.058-.226-.242-.409l-.259-.257c-.128-.127-.2-.126-.29-.034l-.148.149a.038.038 0 01-.06 0l-.082-.081c-.021-.021-.021-.035-.007-.049.042-.043.222-.2.51-.494s.4-.43.44-.465.042-.029.06-.011l.089.088c.021.021.022.035 0 .057l-.12.121c-.063.064-.077.135.026.237z"/><path data-name="パス 3369" d="M8.519 7.069c-.119-.1-1.009-.887-1.087-.956-.048-.04-.073-.061-.09-.05s-.032.043-.021.09c.017.066.283 1.348.314 1.465zm-.838.755c.027.119.195.856.245.984a.431.431 0 00.047.095c.034.055.131.06.216.007l.178-.11c.034-.021.048-.018.056-.005l.066.106c.016.026.018.048-.008.064-.06.037-.246.135-.544.319-.315.2-.4.266-.46.3-.026.016-.041-.01-.06-.039l-.05-.081c-.016-.025-.012-.039 0-.05l.128-.079a.354.354 0 00.154-.36c0-.1-.173-1.058-.267-1.494-.023-.1-.248-1.235-.274-1.372-.018-.048-.04-.14-.081-.15a.112.112 0 01-.057-.035c-.01-.017-.012-.039.016-.069a1.62 1.62 0 00.289-.473c.01-.041.016-.069.037-.082s.074.025.1.045c.24.216 1.161.963 1.407 1.187.307.268 1.07.89 1.2.968a.378.378 0 00.393.027l.136-.084c.026-.016.039-.013.053.009l.055.089c.016.026.023.056-.011.077-.077.047-.169.087-.637.377-.357.221-.494.324-.587.382-.034.021-.058 0-.074-.025l-.053-.085c-.016-.025-.012-.039.013-.055l.11-.069c.119-.074.127-.137.03-.236-.129-.132-.636-.571-.784-.7z"/><path data-name="パス 3370" d="M11.48 5.884c.08.237.322.926.351 1a.112.112 0 00.144.068l.18-.061c.019-.006.041 0 .046.011l.043.128c.006.019 0 .041-.016.048-.057.019-.2.053-.611.19s-.554.2-.6.218c-.019.006-.032 0-.04-.024l-.043-.128a.027.027 0 01.019-.038l.171-.057c.085-.029.11-.08.1-.133s-.289-.905-.487-1.493l-.093-.275-.359-1.035c-.015-.043-.067-.1-.18-.066l-.142.048c-.029.009-.041 0-.049-.02l-.043-.128c-.006-.019 0-.031.028-.041.057-.019.2-.053.611-.19.37-.125.517-.19.583-.212.028-.01.041 0 .049.02l.04.118c.009.029 0 .041-.025.051l-.152.051c-.095.032-.133.076-.1.185.025.076.255.822.332 1.049l.07.208.085-.029a.25.25 0 00.139-.121c.065-.106.543-1.412.571-1.5.035-.117-.041-.155-.127-.126l-.071.024c-.019.006-.027 0-.035-.025l-.038-.114c-.01-.028 0-.041.016-.047.057-.019.251-.069.564-.174.19-.064.346-.132.4-.151.028-.01.041 0 .049.02l.04.118a.037.037 0 01-.025.051l-.095.032a.534.534 0 00-.238.17 9.466 9.466 0 00-.682 1.517c.269.173 1.657 1.1 1.855 1.217a.367.367 0 00.323.018l.1-.035a.035.035 0 01.049.02l.04.119c.01.028 0 .041-.025.051-.047.016-.223.059-.659.206-.4.134-.573.209-.64.231-.019.006-.032 0-.041-.028l-.04-.119a.027.027 0 01.019-.038l.066-.022a.089.089 0 00.034-.149c-.079-.079-1.217-.92-1.318-.97a.235.235 0 00-.184-.012l-.085.029z"/><path data-name="パス 3371" d="M13.899 3.338c-.021-.169-.071-.243-.2-.227l-.228.029c-.03 0-.041-.005-.045-.04l-.014-.114c0-.03 0-.041.045-.046s.29-.021.766-.081c.417-.052.653-.1.713-.1.03 0 .041 0 .044.03l.016.124c0 .03 0 .041-.035.045l-.208.026a.22.22 0 00-.219.224c0 .06.03.359.066.647l.077.615c.031.248.08.6.11.757a1.172 1.172 0 00.251.593.825.825 0 00.713.223 1.055 1.055 0 00.635-.321 1.162 1.162 0 00.183-.875l-.112-.893a9.268 9.268 0 00-.173-.941.22.22 0 00-.231-.193l-.179.022c-.03 0-.042-.01-.044-.03l-.016-.124c0-.03.005-.041.035-.045.05-.006.28-.02.607-.061.308-.039.464-.073.5-.078s.052.009.055.033l.014.114c0 .03 0 .045-.024.048l-.178.023a.2.2 0 00-.184.22c0 .061.085.755.093.82s.107.934.112 1.135a1.324 1.324 0 01-.3 1 1.349 1.349 0 01-.864.421 2.051 2.051 0 01-.729-.029 1.018 1.018 0 01-.669-.591 4.448 4.448 0 01-.239-1.185z"/><path data-name="パス 3372" d="M18.717 4.262c0 .035-.021.045-.061.044l-1.4-.021c-.03 0-.04-.011-.04-.031v-.26c0-.03.01-.04.041-.039l1.4.021c.04 0 .06.011.059.051z"/><path data-name="パス 3373" d="M19.03 5.026c.02 0 .029.013.025.043a1.158 1.158 0 00.121.589.777.777 0 00.613.436.612.612 0 00.715-.5c.055-.457-.136-.631-.639-.892a2.37 2.37 0 01-.675-.5.952.952 0 01-.163-.74.849.849 0 01.431-.654 1.02 1.02 0 01.734-.154 1.575 1.575 0 01.611.194.086.086 0 00.106 0l.072-.057a.092.092 0 01.073-.022c.03 0 .036.035.03.084-.009.079-.013.784-.019.834 0 .02-.013.029-.034.031l-.082.015a.039.039 0 01-.046-.036 1.439 1.439 0 00-.245-.563.657.657 0 00-.491-.27.534.534 0 00-.616.435.61.61 0 00.085.463 1.674 1.674 0 00.569.38 1.575 1.575 0 01.668.473.96.96 0 01.163.74 1.042 1.042 0 01-1.185.976 1.307 1.307 0 01-.816-.339c-.055-.047-.082-.07-.112-.074s-.055.034-.09.08-.057.054-.1.049-.056-.037-.05-.087.183-.854.2-.913c.009-.029.015-.039.035-.036z"/><path data-name="パス 3374" d="M22.59 5c-.052-.017-.073 0-.087.04l-.066.2a51.85 51.85 0 00-.318 1.058.151.151 0 00.11.214l.171.055c.038.012.044.025.037.049l-.035.109a.043.043 0 01-.063.032c-.086-.027-.243-.094-.633-.219-.467-.15-.614-.181-.709-.212-.038-.012-.041-.034-.034-.058l.035-.11c.009-.028.022-.035.06-.023l.248.079c.114.037.17-.072.205-.181.073-.229.257-.768.355-1.073l.2-.609c.046-.143.226-.736.249-.808.076-.238.069-.314-.083-.363l-.21-.067c-.038-.012-.041-.034-.034-.058l.032-.1a.047.047 0 01.063-.032c.086.027.234.091.7.24.428.137.6.178.69.206.038.012.041.034.034.058l-.032.1a.043.043 0 01-.063.032l-.171-.055c-.171-.055-.215.015-.279.2-.026.065-.247.688-.286.811l-.061.19c-.015.048-.007.071.036.085l1.571.5c.076.024.1.016.117-.036l.046-.143c.055-.171.25-.844.262-.9.044-.154.053-.246-.052-.279l-.219-.07c-.033-.011-.034-.027-.024-.055l.035-.109c.008-.024.017-.037.05-.026.086.028.291.109.672.231.362.116.557.163.633.187.048.015.051.037.043.061l-.032.1c-.009.029-.025.044-.072.029l-.171-.055c-.143-.046-.177.027-.23.194-.021.067-.239.711-.287.863l-.165.514c-.067.209-.274.889-.362 1.16-.055.172-.029.253.114.3l.191.061c.029.009.033.027.027.046l-.035.11a.043.043 0 01-.063.032c-.076-.024-.233-.091-.643-.222-.448-.143-.6-.178-.738-.221a.041.041 0 01-.024-.055l.035-.109c.008-.024.017-.037.05-.026l.257.082c.114.037.146-.047.193-.175.083-.225.337-.984.364-1.07l.043-.133c.014-.043-.02-.069-.086-.091z"/><path data-name="パス 3375" d="M27.19 5.4a1.784 1.784 0 00-1.009.806c-.669 1.115-.22 1.921.14 2.137.866.52 1.58-.358 1.8-.718a1.577 1.577 0 00-.166-2.094.86.86 0 00-.761-.131m1.7.9a1.859 1.859 0 01-.179 1.619 1.739 1.739 0 01-.884.753 1.771 1.771 0 01-1.652-.164 2.294 2.294 0 01-.8-.865 1.75 1.75 0 01.136-1.645 1.989 1.989 0 011.033-.827 1.713 1.713 0 011.538.177 1.77 1.77 0 01.806.95"/><path data-name="パス 3376" d="M29.571 8.943l-.807.961c-.1.122-.056.189.035.267l.16.136a.036.036 0 01.008.053l-.081.095c-.02.023-.041.017-.064 0-.046-.039-.188-.18-.546-.485-.38-.325-.557-.456-.6-.489-.023-.019-.024-.034-.008-.053l.088-.1c.013-.015.027-.016.05 0l.152.13c.076.065.166.129.269.039.053-.047.762-.862.937-1.067l.227-.266c.078-.092.655-.783.693-.835.067-.1.061-.171-.046-.262l-.2-.169c-.023-.019-.024-.033-.008-.052l.084-.1c.016-.019.03-.02.045-.007.046.039.234.219.606.537s.5.4.55.45a.038.038 0 010 .06l-.075.088a.037.037 0 01-.056 0l-.145-.123c-.084-.071-.17-.093-.232-.021l-.793.914z"/><path data-name="パス 3377" d="M31.368 9.724a25.81 25.81 0 00-1.307 1.1c-.19.163-.247.284-.135.425l.081.1c.025.032.009.044-.011.059l-.09.071c-.023.018-.031.025-.056-.006s-.205-.284-.323-.433c-.081-.1-.3-.359-.334-.4-.012-.016-.011-.029.017-.051l.1-.077a.032.032 0 01.042.005l.105.133c.081.1.21.089.465-.081.074-.052.642-.463 1.27-.959l.5-.394a.469.469 0 00.174-.635l-.1-.126a.033.033 0 01.009-.045l.106-.084a.027.027 0 01.042.005c.016.02.036.054.088.128s.136.18.272.352c.053.067.1.123.144.167s.072.083.091.107a.148.148 0 01.039.122c-.008.07-.366 1.6-.414 1.767-.019.1-.3 1.318-.326 1.443l.012.016.408-.322c.345-.273.542-.428.732-.591.143-.126.515-.445.566-.518a.269.269 0 00-.015-.326l-.1-.126c-.018-.024 0-.036.017-.051l.09-.071c.023-.019.031-.025.056.006.037.047.125.182.335.449.186.235.272.32.309.367.025.032.015.052 0 .061l-.09.071c-.024.019-.045.023-.058.007l-.087-.11c-.062-.078-.156-.068-.31.035-.282.191-.973.673-1.373.989l-1.036.818c-.055.043-.11.087-.147.04a.25.25 0 01-.043-.183c.015-.062.09-.466.189-.939.12-.541.247-1.139.273-1.235s.3-1.346.318-1.437l-.018-.023z"/><path data-name="パス 3378" d="M5.914 16.738c-.061-.062-.176-.056-.351-.056a.18.18 0 00-.163.165c0 .074.108.131.208.143a.658.658 0 00.29-.04.158.158 0 00.079-.12c0-.05-.048-.075-.063-.091m-.2-.389c-.105 0-.281.063-.3.187-.016.089.13 0 .29.006s.237.1.336-.013-.162-.179-.322-.181m29.7 8.547a12.209 12.209 0 00-2.4.212c-.974.087-1.5.092-1.485-.08s.946-1.246 1.442-1.294c.292-.028.634.348 1.186.5.612.175 1.092.1 1.438.347.439.3.13.427-.186.311m-9.354 3.724c-2.041 1.763-1.129.447-.718-.949a14.253 14.253 0 012.212-4.351c.752-.852.765-1.187 1.813-.8.678.251 1.733-.238 1.449.129-.776 1-3.511 3.3-4.242 4.117s-.823 1.015-.711 1.1.782-.6 1.073-.821a39.657 39.657 0 005.121-5.025c.64-.839-.026-1.46-.8-1.714s-1.568-.712-1.249-1.345c.254-.508 1.376-.132 1.9.043a4.209 4.209 0 003.169-.346c.282-.195.486-.628.556-.6a3.03 3.03 0 01-.281 1.16 17.839 17.839 0 01-3.262 4.52c-2.571 2.851-4.9 3.906-6.024 4.878m5.09-2.818a21.283 21.283 0 01-4.9 3.965c-.737.38-1.068.677-1.188.49s.557-.7.557-.7 4.008-2.887 5.036-3.86c.492-.478.609-.015.5.1m-7.3 5a6.135 6.135 0 01-4.993 1.469 7.716 7.716 0 01-2.75-1.627c-.891-.9-1.258-1.207-1.7-1.3-.566-.11-.735-.115-.77-.037-.03.111.12.174.12.174a2.174 2.174 0 011.014.6c1.183 1.256-.4.339-.5.277a4.6 4.6 0 00-1.221-.729c-.571-.182-.677-.4-.327-.649s.471-.169.626-1.024c.176-.956.643-.885 1.083-1.03.465-.15 1.105-.449 1.191-.972.146-.9 2.13 1.113 2.614 1.818.342.5.474.673.1.533a13.159 13.159 0 00-3.428-.735c-.274-.028-.425-.052-.451.07-.036.155.228.2 1.038.4.491.126 1.243.283 1.778.475a20.936 20.936 0 002.015.644 6.779 6.779 0 001.7.188 4.778 4.778 0 002.966-1.178c.357-.3.551-.524.486-.617s-.176-.087-.313.013c-.436.332-2.388 1.5-3.269 1.37s-.028-.484.355-.647a3.812 3.812 0 001.606-1.752 12.983 12.983 0 01.577-1.211 1.64 1.64 0 011.479-.817 1.7 1.7 0 01.987.115c.2.165-1.146 3.9-2.1 4.619a6.917 6.917 0 01-2.885 1.439 8.171 8.171 0 01-2.942-.086c-.236-.079-.769-.084-.785.029s.108.262.807.406a8.559 8.559 0 002.94.119 5.7 5.7 0 002.633-1.1c.145-.1.763-.435.9-.283s-.442.832-.6 1.048m-4.8 2.38a2.345 2.345 0 00-.726.591c-.419.46-.654.362-1.084 0a16.136 16.136 0 01-2.383-2.243c-.5-.549.095-.348.095-.348.929.207 2.869 1.253 3.513 1.437.888.253.585.563.585.563m-4.761-1.657c-.081.071-.168-.073-.386-.236s-.522-.975-.806-.746.579.709.254.967c-.142.114-1.758-1.753-1.46-1.971.239-.184 1.475.524 2.2 1.281.317.33.311.605.194.706m-2.889-2.317a4.148 4.148 0 01-.525-1.51c.047-.19.3-.212.635-.145 0 0 .484.193.566-.012s-.489-.328-.475-.6c0-.055 0-.219.246-.271s1.019 0 1.115-.221-.362-.056-.381-.245.095-.223.481-.3.455-.051.975-.111c.36-.042.716-.173.208-.323-.192-.059.145-.206.519-.262.486-.071.592-.208.4.324s-.752.858-1.718 1.325c-.765.369-.36 1.471-1.19 1.912-.18.092-.725.5-.86.433m-1.375-1.8a1.285 1.285 0 01-.8-.93c-.108-.339-.2-.315.377-.354a13.481 13.481 0 002.222-.4c.3-.121.688-.307.354.178a1.243 1.243 0 01-1.145.567c-.369-.015-.845.107-.479.3.211.111.752.184.24.435a1.19 1.19 0 01-.767.206m-1.985-2.079c-.254-.3-.5-.466-.564-.594-.062-.152.062-.313.169-.282.06.017.218.353.553.249.277-.084.117-.3.111-.713 0-.082-.007-.131.024-.172s.257-.1.266.21a.793.793 0 00.25.689 1.494 1.494 0 001.573.2 3.248 3.248 0 00.9-.567 4.59 4.59 0 011.359-.582c.335-.1.493-.332.331-.358-.389-.064-.634.016-.783-.047s-1.838-1.676-2.042-1.851c-.112-.1-.457-.138-.525-.224-.2-.163-.482-.631.079-1.193s2.416 1.526 2.416 1.526 1.374 1.373 1.7 1.688c.44.422.414.673.019.978a8.842 8.842 0 01-3.59 1.292c-.894.114-1.693.39-2.236-.249m-.964-1.658c.007-.071.352-.071.442-.073 0 0 .428.389.475.44.083.088.058.233-.021.253-.061.015-.235-.07-.3-.091a4.275 4.275 0 01-.6-.529m.107.981c-.116.053-.345-.053-.523-.779a3.179 3.179 0 01.006-1.533c.021-.157.115-.382.283-.419.143-.039.389-.01.427.112s-.612 1.243-.431 1.859c.1.342.34.715.239.76m-2.847 2.068a18.086 18.086 0 01-2.367-3.651s-.276-.213.019-1.078a1.789 1.789 0 00-.026-.914s.042-.8.229-.266a5.068 5.068 0 01.092 1.459c.037.266.281.439.372.555s1.377 1.58 1.731 2.133c.272.421.49-.06.49-.06s.664-1.228.93-1.78.3-1.164.521-1.119c.168.033-.009.564-.019.706a3.447 3.447 0 00.35 1.957s-1.627 3-2.321 2.057m-2.859-4.93c-.229.064.12.525-.08.595-.247.089-.512-.44-.623-.984-.115-.575.609-1.142.7-.968.039.073.017.126-.226.318-.128.1-.076.276.092.144.24-.218.4-.209.445-.109s-.215.342-.3.372c-.252.088-.248.3-.084.261.289-.061.285-.11.371-.062s.022.338-.287.432m-.288-2.362c-.35-.114-.6-.235-.6-.506 0-.45.769-.7.842-.726a.052.052 0 01.054.006.047.047 0 01.023.046v.272a.054.054 0 01-.04.054c-.2.051-.433.174-.44.276s.079.121.3.2 1.035.4 1.065.8a.442.442 0 01-.245.483.064.064 0 01-.055 0 .054.054 0 01-.032-.045v-.441a2.423 2.423 0 00-.873-.425m-.386-2.519a.563.563 0 01-.235-.477.774.774 0 01.121-.421 1.246 1.246 0 01.756-.462.046.046 0 01.045.014.047.047 0 01.017.039v.271a.057.057 0 01-.042.053c-.155.04-.451.2-.448.4 0 .3.276.356.632.447.126.035.252.068.362.109l.041.021c.254.1.786.3.763.821s-.654.662-.683.667a.061.061 0 01-.05-.013.044.044 0 01-.019-.04v-.272a.058.058 0 01.045-.053.239.239 0 00.207-.266v-.007a.479.479 0 00-.418-.392 2.491 2.491 0 01-1.094-.441m.176-2.141s-.325.043-.394.043a.218.218 0 01-.227-.139c-.026-.159.451-.331.547-.355a6.708 6.708 0 011.066-.045c.507.035 1.066.327 1.1.75a.679.679 0 01-.166.478.977.977 0 01-.787.3.078.078 0 01-.046-.015.077.077 0 01-.014-.042v-.268a.053.053 0 01.049-.055c.3-.043.431-.154.443-.313a.369.369 0 00-.261-.333 3.246 3.246 0 00-1.314-.01m3.976 5.67c.236-.43.932-.281 1.19-.135.046.025.2.122.2.193a1.721 1.721 0 00-.169.906c-.058.221-.318.567-.38.76 0 0-1.24-1-.843-1.724m1.671.144c.089-.076.25-.094.288 0a2.64 2.64 0 00-.065.98c.077.16-.25.219-.341.13a1.324 1.324 0 01.119-1.106m-.534-1.701c-.129-.016-.744.04-.676-.292a.808.808 0 00-.025-.382c.116-.037.179-.092.162-.165-.015-.055-.1-.073-.215-.087l-.024-.066a.507.507 0 00-.222-.259c-.06-.021-.261-.1-.265-.149-.009-.088.091-.165.224-.366.089-.133.19-.224.168-.362a.965.965 0 01.236-.926 1.357 1.357 0 01.766-.038c.17.08.221.173.423.416a1.47 1.47 0 01.255.388 2.333 2.333 0 00.46.652c.077.077.077.127.27.127s.25-.458.38-.551a.232.232 0 01.338.076c.091.49-.56.954-.56.954l-.167.126c-.083.062.059.267.081.3s.284.5.367.643a2.258 2.258 0 01.214.537 12.538 12.538 0 01-.726 2.232.62.62 0 01-.421-.257c-.18-.31.165-.936.165-.936-.056-.217-.145 0-.507-.776-.331-.7-.5-.812-.7-.835m-.674-3.9c.242-.479.924-.472 1.418-.031.331.292.855 1.408.6 1.776-.123.173-.408-.589-.532-.747a2.012 2.012 0 00-.717-.564c-.188-.038-1.149.332-.765-.433m2.067-.285c.437.2.721 1.214.666 1.454-.06.277-.379.757-.379.3a2.725 2.725 0 00-.721-1.731c-.093-.072.087-.183.433-.026m.627-.033c.132.033.266.124.424.435a2.3 2.3 0 01.239.935c.084.619-.235.542-.265.472-.038-.089-.045-.559-.178-1a1.71 1.71 0 00-.328-.7c-.113-.13 0-.168.109-.142m.287 6.78c-.042.2-.826 1.849-.826 1.849l-.4.006s.731-1.444.914-1.907c.115-.291.354-.14.316.053m.812-.115l2.433 2-.169.476a6.991 6.991 0 01-1.74.922.8.8 0 01-.414-.077l-.4-.379a3.335 3.335 0 01-.14-.4c-.006-.212-.4-.353-.554-.183l-.3-.3s.833-1.853.865-1.974c.093-.318.419-.09.419-.09m-.517-1.85a1.549 1.549 0 01.737-.129c.205-.008.463.251.127.372-.276.1-.7 1.034-.741 1.122s-.425.3-.435-.148a1.723 1.723 0 01.311-1.217m1.6-2.023c.773-1.19 3.042-1.17 6.584-1.14a25.958 25.958 0 007.036-1.132c.42-.135 1.142-.645 1.551-.332.123.095.047.415-.115.567-1.21 1.135-4.508 1.6-4.508 1.6s.472-.893-1.594-.388a21.814 21.814 0 01-2.522.463s.216-.487-1.54-.326c-.4.035-1.244.046-2.125.124-1.405.123-1.8.212-2.128.519a1.032 1.032 0 00-.306 1.18c.227.3.568.152.405-.17a.509.509 0 01.128-.609 3.88 3.88 0 011.946-.515 15.464 15.464 0 001.8-.148c.088-.009 1.222-.209 1.263.082s-.5.466-.876.489c.017 0 .129 0-2.436.4-.773.119-.661.642.98.359.592-.1 1.881-.491 2.007-.026.063.227-.38.415-.688.448 0 0-1.145.1-2.243.263-1.015.154-.8.581.132.439.435-.069 1.755-.36 1.833-.085.094.415-2.188.7-2.227.7-.59.069-.366.544.3.427a8.211 8.211 0 011.426-.187c.25.015.625.473-.3.7a5.263 5.263 0 01-1.335.266 1.234 1.234 0 01-.44-.348 8.74 8.74 0 00-1.818-1.837c-.589-.336-.405-1.452-.192-1.781m13.71-.178a11.619 11.619 0 01-3.551.963c-.227-.055-.016-.449.179-.593.236-.177.17-.156 1.546-.4s2.544-1.027 2.721-.77c.148.25-.883.794-.9.8m-.417.77a3.1 3.1 0 01-1.543.991 10.906 10.906 0 01-2.294.593c-.639.1-.435-.232-.222-.416a3.6 3.6 0 011.187-.6 4.643 4.643 0 002.473-.648c.35-.187.516-.1.4.076m-2.166 2.234a5.82 5.82 0 01-2.9.8c-.327-.067.2-.493.449-.725a6.539 6.539 0 012.075-.609c.936-.225 1.446.058.374.53m-5.991.705c.154-.072 1.642-.243 2.174-.353.378-.078.531.442-.436.746a13.245 13.245 0 01-2.733.48c-.572.043-.639-.225-.206-.3a3.132 3.132 0 001.2-.569m.591-1.135a15.094 15.094 0 001.89-.211c.541-.027.438.352-.225.525a10.969 10.969 0 01-1.69.336c-.991.071-.733-.311-.673-.347a1.208 1.208 0 01.7-.3m.9-2.331a9.657 9.657 0 001.494-.333c1.856-.473 2.241-.315 1.845.163a2.839 2.839 0 01-.8.465 17.222 17.222 0 01-2.861.6c-.256.022-.647-.707.317-.9m1.74.881c.611-.173.885-.186.97-.106a.319.319 0 01-.094.468 13.718 13.718 0 01-3.384.671c-.488.025-.324-.313-.137-.412a20.049 20.049 0 012.645-.621m-4.7 6.722a2.656 2.656 0 01-.816.43c-.38.1-.657 0-.439-.115.459-.232 1.3-.8 1.426-.8s.12.21-.172.483m8.157-3.69s.786-.147.815.139c.036.358-.681.427-1.267.455-.237.009-2.753 0-3.176-.018-.965-.037-2.453.375 1.747.492 0 0 1.123-.063 1.128.105 0 .313-.464.354-1.1.354a27.268 27.268 0 01-2.766-.177c-.941-.1-.885.369-.139.419.871.059 1.368.1 2.071.159.491.043.21.383-.129.383a14.475 14.475 0 01-4.392-.308s-1.948-1.016-.969-1.095c0 0 2.9.037 4-.87.071-.061.813.045 2.294 0 .785-.023 1.88-.043 1.88-.043m-5.073 3.577a.43.43 0 01-.015.742c-.335-.049-1.138-.436-1.119-.6s.84-.344 1.134-.146m12.978-4.741c.751.515 1.586.583 1.768.835.379.522-1.158 1.224-1.847 1.082-.566-.113-.483-.5-.513-.676a4.97 4.97 0 01.024-.942c.084-.454.215-.543.567-.3m-4 2.089a20.347 20.347 0 001.578-1.523c.33-.412.517-.709.613-2.047a2.488 2.488 0 012.226-2.138c.325-.022.949-.094 1.285-.147 3.336-.524 2.942-3.236 3.125-3.272s.614 1.558.713 2.035c.069.254 1.063 4.528-4.255 2.962a1.793 1.793 0 00-2.217 1.508c-.18.764-.015 1.651-.292 1.984-.17.2-.421.032-.7.352-.254.289-1.261 1.26-1.261 1.26a3.316 3.316 0 01-.546.5.713.713 0 01-.843.11c-.224-.184.126-1.174.575-1.589m9.3-.289a2.429 2.429 0 01-1.172 1.575c-.267.2-1.157-.074-.621-.752.936-1.19 1.713-2.314 1.814-2.335a3.761 3.761 0 01-.021 1.512M9.01 15.81c.028-.116.217-.1.318-.006a.536.536 0 01.269.51.527.527 0 01-.263.375c-.113.074-.331.176-.362 0-.026-.139.025-.119.1-.377.024-.189-.092-.386-.061-.5m27.265 8.756c-.357-.428-1.356-.618-1.387-.744s.937-1.011.991-2.018a6 6 0 00-.156-2.086 7.673 7.673 0 00.542-2.36 7.5 7.5 0 00-1.678-5.426c-.022-.035-.141-.243-.2-.215-.039.017 0 .167.006.257.056 1.12-.279 3.06-1.307 3.579a6.976 6.976 0 01-2.594.613 2.812 2.812 0 00-2.839 2.785 2.821 2.821 0 01-1.138 2.25c-.309.34-.815.661-1.108 1.008a4.442 4.442 0 00-.581 1.539c-.029.1-.066.241-.146.247a2.173 2.173 0 00-1.91 1.475 9.834 9.834 0 01-.787 1.361 4.09 4.09 0 01-1.781 1.229c-1.143.234-1.4-.468-1.863-1.01-.913-1.054-.93-1.034-.8-1.434s.125-.906-.527-1.054c-.449-.1-2.641.4-2.4-.139a.434.434 0 01.357-.259c.685.027 2.169.056 2.169.056.715-.014 1.309-.067 2.021-.127a2.754 2.754 0 001.347-.485c.082-.108.007-.14.061-.19s.209-.067.324-.1c.695-.2 1.111-.739 1.037-.942.734-.142 1.092-.147 1.384-.6.216-.328-.11-.94-.774-.878 0 0-1.2.225-1.254-.039s1.2-.765 1.2-.765a.443.443 0 00.055-.826c.833-.187 2-1.38 1.55-1.6a6.5 6.5 0 00.943-.615c.573-.443.51-.872.219-1.048a3.165 3.165 0 00.695-.812.706.706 0 00-.419-.905 8.032 8.032 0 00-2.351.579 16.963 16.963 0 01-4.246.821 48.243 48.243 0 01-5.527.153 5.63 5.63 0 00-2.737.584 2.589 2.589 0 00-1.171 2.54c-.484-.038-.786.211-.936.123a1.735 1.735 0 01-.4-1.153 1.544 1.544 0 01.768-.639c.489-.266.976-.684.934-1.137a.848.848 0 00-.467-.642 1.379 1.379 0 01-.719-.652c-.2-.357-.289-.469-.495-.515a.622.622 0 00-.506.1 1.2 1.2 0 00-1.033-.087 2.079 2.079 0 00-1.162-.063.833.833 0 00-.359.467c-.211.522.105.619.039.832a2.765 2.765 0 00-.229.947.517.517 0 01-.047.335 1.716 1.716 0 00-.329.609c.011.091.079.1.263.209a.777.777 0 01.195.111c.036.03.066.055.09.077a.215.215 0 00-.071 0c-.043.006-.028.065 0 .1.049.071.021.028.038.047s.021.028.015.044c-.015.045-.026.1 0 .122a.113.113 0 00.1.025v.042a4.568 4.568 0 00-.039.494c.019.19.293.281.871.39.332.1.625.937.571.9-.49-.3-1.612-.417-1.946.222-.528 1.008.572 2.034.682 2.143a.734.734 0 01.155.644c-.039.166-.72 1.356-.911 1.356A16.107 16.107 0 012.8 22.533c-.24-.2-.265-.229-.257-.568a3.13 3.13 0 00-.154-1.421c.987-.919-.348-1.482-.348-1.482v-.215c.559-.254.949-.49 1.059-.887.123-.47-.105-1.115-1.057-1.437v-.488c1.121.016 1.316-.35 1.339-1.013-.033-.63-.788-1.094-1.343-1.156.011-.435 0-.807 0-.807s0-.334-.285-.339-.27.312-.27.312v.828a2.7 2.7 0 00-1.134.324c-.212.119-.388.285-.362.52.026.288.321.413.533.44a6.5 6.5 0 00.963-.073v.235a1.3 1.3 0 00-1.225 1.066c0 .827.735.922 1.222 1.118v.452c-1.08.252-1.162.732-1.162.732a.733.733 0 00.319.785 3.445 3.445 0 00.847.312v.374a1.6 1.6 0 00-.69.4 1.242 1.242 0 00-.133 1.315 2.9 2.9 0 00.813 1v2.556a.246.246 0 00.272.275.268.268 0 00.29-.275v-1.29a11.489 11.489 0 002.3 3.143c1.08.577 2.509-2.047 2.714-2.283.312.17.951 1.2 1.468 1.22.053 0 .379 1.377 1.364 1.62a.772.772 0 01.665.656 1.233 1.233 0 00.628 1.016.7.7 0 01.207.136.832.832 0 01.145.287c.528 1.039 1.3 1.886 1.928 2.007a7.919 7.919 0 011.776.8c.731.533 1.4 1.241 1.687 1.439.469.323.991.469 1.336.181.414-.344 1.015-.742 1.315-1.065a4.108 4.108 0 011.36-.325 10.343 10.343 0 002.575-.987c.388-.233 1.067-.633 2.289-1.412 1-.639 2.442-1.445 2.934-1.789a17.453 17.453 0 002.4-2.376 2 2 0 011.457-.859c.645-.045 1.2-.107 1.837-.171.082-.006.885-.081 1.143-.072.657.026.941-.427.713-.7"/></g><path data-name="パス 3413" d="M63.108 8.768v.192a9.548 9.548 0 01-.1 1.572h-2.336c-.18 0-.756-.06-1-.1L59.8 11a4.006 4.006 0 01.756-.072h2.4c-.36 1.56-1.212 2.508-3.168 3.528l.132.216a5.609 5.609 0 003.68-2.76 10.309 10.309 0 012.616 2.124c.276.3.288.312.384.312.216 0 .384-.3.384-.684a1.053 1.053 0 00-.612-.96 13.035 13.035 0 00-2.448-1c-.108-.024-.12-.036-.216-.06a5.653 5.653 0 00.216-.72h3.84a.129.129 0 00.12-.12.351.351 0 00-.1-.168c-.456-.408-.6-.528-1.1-.924-.288.348-.384.456-.672.816h-2.028a11.383 11.383 0 00.084-1.476v-.288h2.952a.168.168 0 00.132-.156.264.264 0 00-.072-.144l-1.056-.932a9.8 9.8 0 00-.72.84H61.92a8.2 8.2 0 00.528-.816c.444-.024.564-.072.564-.2 0-.168-.216-.252-1.344-.552a7.687 7.687 0 01-1.776 3.152l.192.156a6.351 6.351 0 001.524-1.344zm-3.84 6.732H68.2c.132 0 .216-.06.216-.144a.264.264 0 00-.072-.144c-.528-.432-.684-.564-1.2-.948-.312.36-.408.468-.708.84h-7.168V6.632h8.892a.106.106 0 00.084-.108.272.272 0 00-.06-.12c-.5-.456-.66-.588-1.176-1-.3.36-.4.468-.72.828h-6.876a10.348 10.348 0 00-1.2-.66c.06.78.084 2.58.084 7.14a56.093 56.093 0 01-.084 3.352c0 .156.072.216.264.216a4.139 4.139 0 00.624-.036c.1-.012.144-.06.168-.18zm16.476-3.324v-.468c.336-.072.48-.156.48-.288 0-.072-.048-.12-.2-.18a14.1 14.1 0 001.832-1.04c.636-.012.816-.06.816-.24 0-.1-.048-.18-.18-.288a10.2 10.2 0 00-.972-.72c-.24.24-.312.312-.552.564h-3.912a4.312 4.312 0 01-1.212-.156l.12.66a7.3 7.3 0 011.1-.108h3.768a11.915 11.915 0 01-1.164 1.26c-.48-.084-.5-.084-1-.156a9.744 9.744 0 01.048 1.128v.036H70.98a4.312 4.312 0 01-1.212-.156l.108.66a6.026 6.026 0 011.1-.108h3.744v2.588c0 .132-.036.168-.192.168-1-.036-1.332-.06-2.268-.12l-.012.276c1.652.288 1.732.336 1.912.972a3.264 3.264 0 001.14-.26.75.75 0 00.456-.756c-.012-.78-.012-1.14-.012-1.584v-1.288h4.824c.108 0 .18-.048.18-.144a.427.427 0 00-.1-.2c-.492-.444-.636-.588-1.152-1.008-.372.42-.48.552-.828.96zm-4-6.252a4.415 4.415 0 01.888 1.608c.12.336.18.42.312.42a.448.448 0 00.36-.264 1.194 1.194 0 00.18-.54c0-.264-.168-.492-.588-.78a7.7 7.7 0 00-.96-.612zm2.424-.252a4.491 4.491 0 01.852 1.644c.132.456.18.528.324.528.276 0 .6-.456.6-.84 0-.252-.168-.5-.588-.828a6.913 6.913 0 00-.972-.66zm3 2.292a18.377 18.377 0 001.512-1.452h.1a.386.386 0 00.1.012c.264 0 .468-.1.468-.216 0-.072-.048-.12-.132-.168a12.646 12.646 0 00-1.32-.516 10.356 10.356 0 01-1.164 2.34h-5.34V7.88c0-.12-.012-.288-.024-.576H71.1c-.12.972-.312 1.416-.78 1.728-.372.252-.4.276-.4.48a1.2 1.2 0 00.072.4c.1.276.2.372.384.372.492 0 .9-.8 1-1.92h7.644a9.967 9.967 0 01-.36 1.356l.192.084c.384-.36.48-.456 1.14-1.14.528-.024.744-.1.744-.264 0-.084-.048-.144-.168-.252a17.56 17.56 0 00-1.044-.828c-.288.276-.372.36-.636.648zm14.04-.276V7c.288-.192.36-.264.36-.372 0-.06-.036-.108-.12-.2-.348-.228-.444-.3-.768-.54-.228.24-.3.312-.54.552h-2.324v-.348c.372-.12.492-.2.492-.336 0-.168-.108-.192-1.5-.324.036.5.048.7.06 1.008H84.54a3.862 3.862 0 01-1.056-.108l.072.576a5.324 5.324 0 01.984-.072h2.328v.852h-3.732a4.417 4.417 0 01-1.188-.12l.084.588a6.983 6.983 0 011.128-.072h3.708v.924H84.24a4.31 4.31 0 01-.972-.1l.084.576a3.5 3.5 0 01.876-.084h2.64v.828H84.06a4.292 4.292 0 01-1.008-.1l.084.576a4.183 4.183 0 01.924-.084h2.808v.88h-3.48a5.31 5.31 0 01-1.248-.12l.1.612a6.18 6.18 0 011.14-.1h9.36c.084 0 .144-.036.144-.084a.357.357 0 00-.06-.168 13.741 13.741 0 00-1.08-.936c-.288.336-.372.444-.672.792h-3.256v-.876h3.96c.1 0 .132-.024.132-.072a.256.256 0 00-.048-.144c-.336-.324-.408-.384-.732-.66l-.192-.168c.264-.036.3-.072.312-.228-.024-.576-.024-.648-.036-1.272h1.86c.1 0 .144-.036.144-.084a.223.223 0 00-.048-.132 12.523 12.523 0 00-.912-.876c-.276.3-.36.384-.624.7zm-3.4 2.544V9.4h2.448v.072c0 .12.048.144.24.144a2.418 2.418 0 00.276-.012c-.144.144-.144.144-.564.624zm2.448-2.544h-2.44v-.852h2.448zm0 .4v.924h-2.44v-.924zm-5.464 7.772h5.364v.456c.012.132.048.144.348.144.54 0 .66-.048.672-.264a70.085 70.085 0 01-.048-2.268v-.672c.312-.216.372-.264.372-.372 0-.06-.036-.12-.132-.216-.324-.252-.432-.336-.792-.576-.24.252-.312.324-.54.588h-5.052a11.034 11.034 0 00-1.212-.552c.048.564.06 1.056.06 1.98 0 .576-.012 1.044-.048 2.148 0 .168.048.192.384.192.516 0 .612-.036.624-.24zm5.364-1.872h-5.364v-.912h5.364zm0 .4v1.08h-5.364v-1.08zm11.556-3.188v3.976c0 .456.072.636.276.744a4.106 4.106 0 001.368.1 5.137 5.137 0 001.56-.144.483.483 0 00.324-.444.382.382 0 00-.276-.36c-.216-.072-.216-.072-.216-.2a.97.97 0 01.012-.192l.06-1.44-.276-.024a9.532 9.532 0 01-.468 1.804c-.084.156-.252.192-.744.192a4.778 4.778 0 01-.588-.036c-.072-.036-.1-.072-.1-.24V11.2h2.456a.118.118 0 00.12-.108.418.418 0 00-.072-.168c-.432-.4-.564-.516-1.032-.9-.3.336-.384.432-.672.78H99.06a5.324 5.324 0 01-1.08-.084l.084.552a4.984 4.984 0 01.984-.072h.564l-.012.3a6.221 6.221 0 01-.36 2c-.42 1.1-1.188 1.776-2.892 2.544l.108.256a6.944 6.944 0 002.344-1 4.106 4.106 0 001.7-3.072 7.209 7.209 0 00.084-1.02zm-.072-4.088v-1.02c.408-.12.492-.168.492-.3a.2.2 0 00-.108-.144c-.132-.072-.192-.072-1.368-.192a7.411 7.411 0 01.048.876v.78h-1.848c0-.132-.012-.264-.036-.612h-.252c-.1.972-.24 1.32-.66 1.572-.288.18-.324.228-.324.432 0 .432.156.72.408.72s.5-.24.66-.636a3.035 3.035 0 00.2-1.08h4.848c-.132.48-.192.66-.276.9-.072-.048-.168-.132-.276-.216-.288.324-.372.432-.66.768h-2.52a5.272 5.272 0 01-1.128-.1l.1.564a5.712 5.712 0 01.972-.072h4.152q.144 0 .144-.108a.383.383 0 00-.072-.192c-.228-.216-.3-.288-.48-.444.36-.324.648-.6.864-.816.54-.06.684-.108.684-.252 0-.072-.036-.132-.132-.24a25.016 25.016 0 00-.888-.8c-.252.252-.324.336-.576.612zm-5.928 6.036c.588.108.756.288.768.78a1.429 1.429 0 00.888-.324 1.8 1.8 0 00.564-1.4 3.34 3.34 0 00-.48-1.68A4.145 4.145 0 0096.5 9.44c.5-.864 1.008-1.836 1.428-2.724.4-.156.468-.2.468-.336 0-.072-.048-.144-.168-.24-.312-.228-.408-.312-.744-.564-.228.24-.3.312-.528.564h-1.184c-.42-.264-.552-.336-1.008-.576.036.744.06 2.508.06 4.92 0 1.932-.024 4.212-.06 5.652 0 .168.048.2.324.2a1.478 1.478 0 00.576-.084c.048-.024.072-.072.072-.156-.012-1.1-.024-1.812-.024-2.136zm0-6.612H97a20.609 20.609 0 01-.88 2.964 3.167 3.167 0 01.972 2.412 1.633 1.633 0 01-.168.84c-.072.12-.192.168-.42.168-.084 0-.228-.012-.48-.024a1.934 1.934 0 00-.312-.024zm16.488 4.128c1.032.528 1.524.792 1.968 1.056.576.348.576.348.768.468a10.788 10.788 0 01-3.072 2.352l.136.216a9.765 9.765 0 002.42-1.272 8.766 8.766 0 001.092-.912 11.636 11.636 0 011.944 1.716c.324.36.36.384.48.384.156 0 .24-.192.24-.528a1.286 1.286 0 00-.6-1.14 9.407 9.407 0 00-1.548-.972 13.029 13.029 0 002.292-3.9c.348-.012.5-.072.5-.216s-.084-.18-1.356-.624a9.782 9.782 0 01-.936 2.532 10.876 10.876 0 01-1.184 1.876 29.555 29.555 0 00-3.024-1.228zm.168-2.82a7.061 7.061 0 01.96 2.052c.084.372.132.444.264.444.228 0 .528-.468.528-.828a1.133 1.133 0 00-.384-.768 6.377 6.377 0 00-1.188-1.008zm1.86-.564a5.906 5.906 0 011.008 1.968c.12.408.144.456.276.456.24 0 .5-.42.5-.8 0-.468-.492-1.008-1.608-1.74zm-2.7 8.22h7.644v.576c0 .156.048.192.276.192a2.114 2.114 0 00.708-.084c.036-.024.06-.072.06-.18a405.96 405.96 0 01-.048-7.4V7.016c.372-.276.456-.372.456-.492 0-.072-.036-.132-.144-.24a9.2 9.2 0 00-.828-.6l-.564.612h-7.416c-.5-.276-.66-.36-1.188-.612.048.708.06 1.236.06 3.984 0 3.012-.012 4.584-.072 6.432 0 .168.06.2.348.2.588 0 .7-.036.708-.252zm0-8.808h7.644V15.1h-7.644zm21.492 4.032c.072 0 .12-.036.12-.1a.368.368 0 00-.06-.156c-.5-.432-.66-.564-1.212-.972-.348.348-.456.468-.8.828h-3.088V9.056h3.984a.1.1 0 00.108-.084.357.357 0 00-.06-.168c-.48-.42-.636-.552-1.14-.948l-.72.8h-2.172V7.448h4.536c.072 0 .12-.036.12-.1a.473.473 0 00-.06-.168c-.5-.432-.66-.564-1.188-.984-.348.36-.468.468-.816.852h-2.592V6.16c.444-.132.564-.216.564-.36 0-.168-.168-.2-1.608-.348A10.994 10.994 0 01127 6.7v.348h-3.256a3.815 3.815 0 01-1.044-.1l.1.564a3.884 3.884 0 01.912-.072H127v1.22h-2.788a3.222 3.222 0 01-.816-.1l.084.564a2.754 2.754 0 01.732-.072H127v1.272h-3.48a6.918 6.918 0 01-1.396-.124l.108.612a12.315 12.315 0 011.26-.084h2.88a10.171 10.171 0 01-1.372 1.4 13.466 13.466 0 01-2.852 1.972l.108.252a11.963 11.963 0 003.036-1.512v1.98a12.148 12.148 0 01-1.692.248c.24.864.372 1.308.4 1.344.048.1.1.132.156.132.168 0 .228-.12.324-.576a30.124 30.124 0 004.356-1.644l-.06-.264a24.4 24.4 0 01-2.544.588v-2.532a9.442 9.442 0 001.368-1.392h.024c.1.348.132.5.192.684a7.794 7.794 0 001.724 2.964 7.783 7.783 0 002.56 1.728 1.088 1.088 0 01.924-.864l.048-.264a7.517 7.517 0 01-2.94-1.248 5.706 5.706 0 01-.8-.7 12.459 12.459 0 002.128-1.088 3.744 3.744 0 00.468.06c.156 0 .3-.084.3-.192s0-.12-1.308-.888a8.382 8.382 0 01-1.8 1.884 5.1 5.1 0 01-1.14-2.076zm5.172 5.1a5.792 5.792 0 002.76-1.548c.84-.864 1.116-1.884 1.164-4.752.4-.024.828-.048 1.272-.048.132 0 .276 0 .408.012.276.012.54.012.816.012a.381.381 0 00.388-.42c0-.2-.156-.36-.5-.48a2.561 2.561 0 00-.66-.132.676.676 0 00-.36.108 2.081 2.081 0 01-.48.124 9.1 9.1 0 01-.936.1c0-.492 0-.816.012-1.044a1.478 1.478 0 01.156-.66.4.4 0 00.06-.216.616.616 0 00-.348-.48 2.368 2.368 0 00-.944-.356c-.18 0-.372.1-.372.192 0 .036.036.072.108.12.408.276.456.384.48.972.012.252.012.492.012.744s0 .5-.012.78c-.852.1-1.716.192-2.568.3 0-.192.012-.384.012-.564a2.027 2.027 0 01.084-.576.715.715 0 00.06-.276c0-.18-.108-.324-.372-.516a1.936 1.936 0 00-.972-.4c-.156 0-.348.1-.348.18a.08.08 0 00.048.06c.12.084.192.144.288.216a.94.94 0 01.336.78c.024.384.036.852.036 1.212-1.092.132-1.6.192-1.92.192a1.568 1.568 0 01-.924-.264.291.291 0 00-.132-.072c-.06 0-.108.132-.108.252a.98.98 0 00.336.576c.372.4.564.516.792.516a.764.764 0 00.4-.144 1.329 1.329 0 01.432-.156c.336-.084.8-.168 1.152-.228a13.289 13.289 0 01-.06 1.62c-.024.324-.048.48-.048.588 0 .408.18.636.516.636.312 0 .432-.192.432-.66v-.072c-.012-.744-.012-1.452-.024-2.2.84-.12 1.7-.216 2.556-.288a15.312 15.312 0 01-.1 2.244 3.989 3.989 0 01-1.272 2.556 5.491 5.491 0 01-1.788 1.124zM147.4 10c-.1 0-.144.288-.144.444a1.1 1.1 0 00.276.66c.3.384.48.588.72.588a.546.546 0 00.228-.1 1.61 1.61 0 01.624-.108c.456-.036.684-.048 1.488-.06 2.4-.048 3.192-.072 4.116-.072a7.25 7.25 0 001.644-.132.359.359 0 00.276-.372c0-.252-.228-.408-.756-.42h-.792c-.744 0-1.6.012-2.484.024-1.14.024-2.328.06-3.42.072h-.756a1.025 1.025 0 01-.564-.108 3.855 3.855 0 01-.336-.324c-.052-.052-.076-.092-.12-.092zm18.432-3.156a5.072 5.072 0 011.5 1.62c.12.18.228.384.468.384.276 0 .372-.336.372-.564a1.059 1.059 0 00-.336-.66A5.3 5.3 0 00166 6.572zm1.032-.888a6.112 6.112 0 011.752 1.572.451.451 0 00.36.2c.264 0 .324-.324.324-.528a.894.894 0 00-.46-.7 6.093 6.093 0 00-1.812-.816zm-6.816 1.032c0 .084.084.12.12.132.42.2.54.36.552.792.012.36.012.732.012 1.152 0 .6-.012 1.212-.012 2.352v.96a3.317 3.317 0 00.276 1.824 1.919 1.919 0 001.632.732c.24.024.552.036.888.036.8 0 1.752-.072 2.16-.108a7.1 7.1 0 001.116-.144c.312-.084.444-.192.444-.444a.464.464 0 00-.264-.432 1.077 1.077 0 00-.612-.168 5.936 5.936 0 00-1.08.216 12.812 12.812 0 01-2.424.216c-1.08 0-1.332-.288-1.332-1.02 0-1.272.012-1.9.036-2.6a.932.932 0 00.648.2 13.435 13.435 0 001.884-.24c.576-.1 1.332-.24 1.992-.4.456-.108.624-.24.624-.468a.484.484 0 00-.4-.48 1.759 1.759 0 00-.5-.06h-.156a.733.733 0 00-.432.168 1.524 1.524 0 01-.684.3 15.033 15.033 0 01-1.656.36 6.809 6.809 0 01-1.14.108h-.144c.048-1.452.048-1.668.288-1.98a.5.5 0 00.12-.288c0-.228-.12-.408-.552-.648a1.85 1.85 0 00-.96-.288c-.16.008-.448.132-.448.224zm11.052 8.176a13.276 13.276 0 005.22-3.648 8.564 8.564 0 012.76 2.784c.372.6.456.672.684.672.288 0 .492-.252.492-.612 0-.912-1.284-2.04-3.648-3.18a18.317 18.317 0 001.728-2.652.7.7 0 01.372-.348c.12-.06.216-.144.216-.24 0-.12-.06-.264-.348-.5A1.575 1.575 0 00177.8 7c-.084 0-.144.024-.264.144a1 1 0 01-.708.3c-1.26.18-2.316.3-3.12.384a3.4 3.4 0 01-.372.024 1.536 1.536 0 01-.924-.336.361.361 0 00-.168-.084c-.06 0-.12.1-.12.168a1.418 1.418 0 00.408.792c.288.3.5.444.7.444a.747.747 0 00.384-.12 2.309 2.309 0 01.888-.24c.876-.156 1.968-.312 2.856-.444a14.342 14.342 0 01-2.352 3.612 16.289 16.289 0 01-4.08 3.24z" fill="#f1f1f1"/><path data-name="線 105" fill="none" stroke="#f1f1f1" stroke-width=".5" d="M46.5 0v36"/><path data-name="パス 3409" d="M60.74 28.293a.221.221 0 00.234-.218.215.215 0 00-.242-.218c-.121.008-.145.008-.274.008a.141.141 0 01-.15-.139c-.008-.9-.008-2.567-.008-2.567 0-.1.008-.113.089-.113h.851a.21.21 0 00.21-.218.205.205 0 00-.21-.218h-.84c-.081 0-.1-.008-.1-.081s-.008-.186-.008-.315.008-.266.008-.412a.891.891 0 01.856-.953h.1a.224.224 0 00.242-.218c0-.218-.283-.226-.363-.226a1.313 1.313 0 00-1.3 1.348v.21c0 .258.008.476.008.557s-.024.089-.113.089h-.52a.212.212 0 00-.21.226.2.2 0 00.21.21h.517c.1 0 .113.016.113.113v2.568a.131.131 0 01-.137.137c-.129 0-.178-.008-.283-.008h-.008a.221.221 0 00-.234.218.219.219 0 00.242.218c.194-.008.412-.016.638-.016s.46.008.678.016zm3.35.1a1.834 1.834 0 001.881-1.937 1.85 1.85 0 00-1.881-1.929 1.837 1.837 0 00-1.865 1.929 1.821 1.821 0 001.869 1.942zm0-.428a1.412 1.412 0 01-1.4-1.51 1.407 1.407 0 011.4-1.51 1.413 1.413 0 011.4 1.51 1.418 1.418 0 01-1.396 1.515zm4.279.323a.221.221 0 00.234-.218.219.219 0 00-.242-.218c-.113.008-.145.008-.266.008a.133.133 0 01-.137-.145c0-.387-.008-.751-.008-1.058s.008-.557.008-.71a1.108 1.108 0 011.179-.961h.048a.22.22 0 00.226-.226.225.225 0 00-.266-.226 1.527 1.527 0 00-1.146.5.07.07 0 01-.048.024c-.008 0-.024 0-.024-.024-.048-.291-.315-.428-.638-.428h-.224a.218.218 0 00-.226.234.214.214 0 00.218.226h.008a1.442 1.442 0 01.17-.008c.2.008.266.153.266.371v.63c0 .541-.008 1.033-.016 1.655a.128.128 0 01-.129.145c-.129 0-.17-.008-.274-.008h-.009a.222.222 0 00-.234.226.209.209 0 00.242.21c.186-.008.4-.016.622-.016s.452.008.662.016zm7.822-.694a.247.247 0 00-.242-.234.228.228 0 00-.161.073 1.446 1.446 0 01-1.171.533 1.319 1.319 0 01-1.356-1.421c0-.113.016-.145.1-.145.178 0 .864.008 1.469.008.3 0 .573 0 .759-.008.412-.016.589-.242.589-.541a1.5 1.5 0 00-1.59-1.324 1.846 1.846 0 00-1.8 1.954 1.8 1.8 0 001.824 1.905 1.62 1.62 0 001.583-.795zm-.492-1.816c0 .129-.073.218-.266.226-.226.008-.678.008-1.1.008-.936 0-1.009 0-1.009-.081a1.308 1.308 0 011.267-.993 1.013 1.013 0 011.111.845zm5.6 2.067c-.032 0-.065.008-.1.008-.178 0-.315-.1-.315-.484v-1.1c0-1.106.008-2.414.016-3.092v-.032a.587.587 0 00-.646-.67c-.073 0-.186.008-.266.008a.24.24 0 00-.25.242.208.208 0 00.226.21h.016a1.021 1.021 0 01.129-.008c.323 0 .323.137.323.686 0 .468-.008 1.041-.008 1.453 0 .1-.008.145-.024.145s-.04-.04-.081-.1a1.623 1.623 0 00-1.279-.572 1.808 1.808 0 00-1.832 1.913 1.8 1.8 0 001.832 1.93 1.681 1.681 0 001.348-.678c.016-.016.024-.024.032-.024.024 0 .032.032.04.081a.662.662 0 00.735.573c.1 0 .323-.024.323-.25a.214.214 0 00-.21-.234zm-2.244.089a1.346 1.346 0 01-1.372-1.485 1.345 1.345 0 011.372-1.493 1.378 1.378 0 011.364 1.493 1.38 1.38 0 01-1.358 1.489zm7.152-.089c-.04 0-.081.008-.137.008-.3-.024-.3-.315-.3-1.106 0-.46.008-.936.016-1.526a.6.6 0 00-.678-.614h-.2a.218.218 0 00-.234.226.216.216 0 00.226.226c.1 0 .089-.008.161-.008.2.008.258.153.258.363v1.485a1.174 1.174 0 01-1.189 1.087.9.9 0 01-.92-.945 22.54 22.54 0 01-.016-.936c0-.291.008-.605.008-.872a.591.591 0 00-.67-.622h-.21a.229.229 0 00-.234.234.21.21 0 00.226.218h.008c.081 0 .089-.008.129-.008.113 0 .283.024.283.363 0 1.461.008 1.623.008 1.679a1.255 1.255 0 001.332 1.308 1.557 1.557 0 001.235-.557c.016-.016.024-.024.04-.024a.026.026 0 01.024.024c.089.371.307.46.654.476.089 0 .113-.008.186-.008a.225.225 0 00.218-.234.214.214 0 00-.21-.234zm4.392-.234a.259.259 0 00-.258-.25.254.254 0 00-.21.121 1.271 1.271 0 01-1.033.468 1.415 1.415 0 01-1.4-1.5 1.427 1.427 0 011.4-1.526 1.061 1.061 0 01.823.331c.1.113.073.21.081.379a.213.213 0 00.226.194.208.208 0 00.234-.2v-.016c-.008-.186-.008-.315-.008-.436s0-.25.008-.42v-.016a.208.208 0 00-.234-.2c-.089 0-.186.04-.194.137-.008.04-.016.089-.04.089s-.024-.008-.04-.016a1.861 1.861 0 00-.912-.242 1.87 1.87 0 00-1.816 1.978 1.835 1.835 0 001.9 1.905c.873-.001 1.478-.542 1.478-.776zm4.117.694a.219.219 0 00.218-.226.2.2 0 00-.137-.2c-.323-.113-.379-.307-.379-.9 0-.307.016-.727.04-.993a2.191 2.191 0 00.008-.226 1.1 1.1 0 00-1.259-1.235c-.694 0-1.372.347-1.372.654a.219.219 0 00.226.218.225.225 0 00.17-.081 1.271 1.271 0 01.945-.387c.654 0 .84.347.84.791 0 .04-.008.089-.008.129 0 .057-.032.081-.129.1a12.989 12.989 0 00-1.493.331 1.079 1.079 0 00-.864 1 1.2 1.2 0 001.308 1.114 1.492 1.492 0 001.227-.622.043.043 0 01.032-.024c.016 0 .024.016.032.04a.687.687 0 00.6.521zm-1.9-.339a.772.772 0 01-.864-.678c0-.565.67-.727 1.937-.928h.024c.057 0 .081.024.081.089v.1c.009 1.252-.754 1.421-1.17 1.421zm4.86-2.922a.21.21 0 00.226-.218.208.208 0 00-.226-.21h-.718c-.1 0-.121 0-.121-.089 0 0 .016-.646.016-.88a.229.229 0 00-.234-.25.229.229 0 00-.234.234v.2c0 .283-.008.67-.008.7 0 .073-.016.081-.089.081h-.468a.208.208 0 00-.226.21.21.21 0 00.226.218h.476c.057 0 .081.008.081.089v.129c0 .4-.016 1.38-.016 1.9 0 .355 0 1.235 1.033 1.235.323 0 .517-.04.517-.25a.2.2 0 00-.194-.21h-.032c-.081.008-.153.016-.226.016-.63 0-.646-.428-.646-1.058 0-.6.024-1.429.024-1.736 0-.1 0-.113.129-.113zm2.131-2.293a.378.378 0 00-.4-.379.383.383 0 00-.387.379.357.357 0 00.379.387.385.385 0 00.416-.383zm.42 5.546a.225.225 0 00.242-.226.219.219 0 00-.25-.226c-.121.008-.153.008-.283.008a.142.142 0 01-.145-.153v-.63c0-.589.008-1.2.016-1.768v-.024c0-.339-.153-.662-.6-.662-.186 0-.161-.008-.315-.008a.231.231 0 00-.234.242.212.212 0 00.218.218h.016c.065 0 .1-.008.17-.008.194.008.274.137.274.371 0 .7-.008 1.493-.016 2.26 0 .1-.048.161-.145.161-.137 0-.186-.008-.291-.008h-.008a.225.225 0 00-.242.226.219.219 0 00.25.226c.194-.008.42-.016.646-.016s.468.008.686.016zm2.882.1a1.834 1.834 0 001.881-1.937 1.85 1.85 0 00-1.881-1.929 1.837 1.837 0 00-1.865 1.929 1.821 1.821 0 001.873 1.938zm0-.428a1.412 1.412 0 01-1.4-1.51 1.407 1.407 0 011.4-1.51 1.413 1.413 0 011.4 1.51 1.418 1.418 0 01-1.392 1.511zm6.781.323a.216.216 0 00.234-.218.216.216 0 00-.234-.218c-.113 0-.113.008-.234.008-.089 0-.129-.057-.129-.145v-.387c0-.581-.008-1.243-.016-1.51a1.279 1.279 0 00-1.348-1.292 1.513 1.513 0 00-1.195.549.074.074 0 01-.04.024c-.024 0-.032-.016-.04-.04a.576.576 0 00-.638-.452h-.234a.229.229 0 00-.234.234.214.214 0 00.218.226h.016a1.442 1.442 0 01.17-.008c.194.008.266.153.266.363 0 .347.008.654.008.953 0 .42-.008.84-.016 1.348a.127.127 0 01-.137.137c-.129 0-.153-.008-.25-.008h-.008a.222.222 0 00-.234.226.209.209 0 00.242.21c.186-.008.387-.016.589-.016s.42.008.63.016h.008a.221.221 0 00.234-.218.215.215 0 00-.242-.218 1.9 1.9 0 01-.218.008c-.1 0-.145-.048-.145-.137 0-.379-.008-.727-.008-1.025s.008-.533.008-.686a1.194 1.194 0 011.211-1.066.9.9 0 01.92.944c.008.113.008.339.008.614 0 .379 0 .84-.008 1.211 0 .089-.04.145-.121.145-.129 0-.145-.008-.242-.008h-.008a.222.222 0 00-.234.226.209.209 0 00.242.21c.186-.008.379-.016.581-.016s.42.008.63.016zm4.214.016a.219.219 0 00.218-.226.2.2 0 00-.137-.2c-.323-.113-.379-.307-.379-.9 0-.307.016-.727.04-.993a2.193 2.193 0 00.008-.226 1.1 1.1 0 00-1.259-1.235c-.694 0-1.372.347-1.372.654a.219.219 0 00.226.218.225.225 0 00.17-.081 1.271 1.271 0 01.944-.387c.654 0 .84.347.84.791 0 .04-.008.089-.008.129 0 .057-.032.081-.129.1a12.989 12.989 0 00-1.493.331 1.079 1.079 0 00-.864 1 1.2 1.2 0 001.308 1.114 1.492 1.492 0 001.227-.622.043.043 0 01.032-.024c.016 0 .024.016.032.04a.687.687 0 00.604.518zm-1.9-.339a.772.772 0 01-.864-.678c0-.565.67-.727 1.937-.928h.024c.057 0 .081.024.081.089v.1c.012 1.249-.755 1.418-1.167 1.418zm4.416.331a.225.225 0 00.242-.226.225.225 0 00-.242-.226h-.1c-.226 0-.331-.016-.331-.145v-.677c0-1.171.008-2.995.024-3.867v-.024a.592.592 0 00-.662-.654h-.25a.231.231 0 00-.234.242.2.2 0 00.21.218h.016a1.568 1.568 0 01.178-.008c.218.008.266.113.266.355v1.074c0 1.146-.008 2.632-.016 3.342 0 .153-.153.153-.283.153-.04 0-.089-.008-.153-.008h-.008a.225.225 0 00-.242.226.219.219 0 00.25.226c.194-.008.42-.016.646-.016s.468.008.686.016zm6.046-3.568a.188.188 0 00-.2-.194.182.182 0 00-.186.129c-.008.024 0 .1-.04.1a.059.059 0 01-.048-.016 1.3 1.3 0 00-.71-.218.983.983 0 00-1.1.928.975.975 0 00.654.9c.936.387 1.292.581 1.292 1.009 0 .387-.4.622-.807.622-.46 0-.864-.266-.864-.533 0-.057.016-.1.016-.153a.207.207 0 00-.218-.218.212.212 0 00-.226.21v.016c.008.194.016.315.016.436s-.008.242-.016.42v.016a.2.2 0 00.21.194c.1 0 .194-.024.194-.226 0-.024.008-.04.024-.04a.1.1 0 01.057.032 1.266 1.266 0 00.807.266 1.124 1.124 0 001.275-1.041 1.155 1.155 0 00-.718-1c-.25-.129-.638-.291-.864-.4a.622.622 0 01-.4-.533c0-.266.234-.517.654-.517.048 0 .767 0 .767.646a.207.207 0 00.226.21.2.2 0 00.2-.194v-.016c-.008-.186-.008-.307-.008-.42s0-.234.008-.4zm5.037 3.116c-.04 0-.081.008-.137.008-.3-.024-.3-.315-.3-1.106 0-.46.008-.936.016-1.526a.6.6 0 00-.678-.614h-.2a.218.218 0 00-.234.226.216.216 0 00.226.226c.1 0 .089-.008.161-.008.2.008.258.153.258.363v1.485a1.174 1.174 0 01-1.195 1.082.9.9 0 01-.92-.945 22.54 22.54 0 01-.016-.936c0-.291.008-.605.008-.872a.591.591 0 00-.67-.622h-.21a.229.229 0 00-.234.234.21.21 0 00.226.218h.008c.081 0 .089-.008.129-.008.113 0 .283.024.283.363 0 1.461.008 1.623.008 1.679a1.255 1.255 0 001.332 1.308 1.557 1.557 0 001.235-.557c.016-.016.024-.024.04-.024a.026.026 0 01.024.024c.089.371.307.46.654.476.089 0 .113-.008.186-.008a.225.225 0 00.218-.234.214.214 0 00-.21-.234zm2.337 2.528a.216.216 0 00.226-.226.205.205 0 00-.21-.218h-.008c-.121 0-.1.008-.234.008a.163.163 0 01-.186-.186v-1.921c0-.089 0-.129.016-.129a.853.853 0 01.081.1 1.649 1.649 0 001.284.589 1.794 1.794 0 001.831-1.916 1.81 1.81 0 00-1.832-1.921 1.662 1.662 0 00-1.332.638c-.032.04-.048.065-.065.065s-.008-.065-.016-.129a.585.585 0 00-.605-.517c-.081 0-.161.008-.266.008a.227.227 0 00-.234.226.22.22 0 00.226.226h.008c.1 0 .089-.008.161-.008.21.008.283.161.283.4v1.161c0 1.066 0 2.317-.008 3.124 0 .121-.04.194-.153.194a2.513 2.513 0 01-.258-.008h-.016a.2.2 0 00-.21.218.2.2 0 00.226.218c.145-.008.331-.008.517-.008.266 0 .549 0 .767.008zm.953-2.406a1.384 1.384 0 01-1.372-1.493 1.391 1.391 0 011.372-1.5 1.391 1.391 0 011.372 1.5 1.384 1.384 0 01-1.373 1.493zm4.222 2.406a.216.216 0 00.226-.226.205.205 0 00-.21-.218h-.008c-.121 0-.1.008-.234.008a.163.163 0 01-.186-.186v-1.921c0-.089 0-.129.016-.129a.852.852 0 01.081.1 1.649 1.649 0 001.284.589 1.794 1.794 0 001.832-1.913 1.81 1.81 0 00-1.832-1.921 1.662 1.662 0 00-1.332.638c-.032.04-.048.065-.065.065s-.008-.065-.016-.129a.585.585 0 00-.605-.517c-.081 0-.161.008-.266.008a.227.227 0 00-.234.226.22.22 0 00.226.226h.008c.1 0 .089-.008.161-.008.21.008.283.161.283.4v1.158c0 1.066 0 2.317-.008 3.124 0 .121-.04.194-.153.194a2.513 2.513 0 01-.258-.008h-.016a.2.2 0 00-.21.218.2.2 0 00.226.218c.145-.008.331-.008.517-.008.266 0 .549 0 .767.008zm.953-2.406a1.384 1.384 0 01-1.372-1.493 1.391 1.391 0 011.372-1.5 1.391 1.391 0 011.372 1.5 1.384 1.384 0 01-1.373 1.493zm4.763.428a1.834 1.834 0 001.881-1.937 1.85 1.85 0 00-1.881-1.929 1.837 1.837 0 00-1.865 1.929 1.821 1.821 0 001.863 1.937zm0-.428a1.412 1.412 0 01-1.4-1.51 1.407 1.407 0 011.4-1.51 1.413 1.413 0 011.4 1.51 1.418 1.418 0 01-1.402 1.51zm4.279.323a.221.221 0 00.234-.218.219.219 0 00-.242-.218c-.113.008-.145.008-.266.008a.133.133 0 01-.137-.145c0-.387-.008-.751-.008-1.058s.008-.557.008-.71a1.108 1.108 0 011.179-.961h.048a.22.22 0 00.226-.226.225.225 0 00-.266-.226 1.527 1.527 0 00-1.146.5.07.07 0 01-.048.024c-.008 0-.024 0-.024-.024-.048-.291-.315-.428-.638-.428h-.23a.218.218 0 00-.226.234.214.214 0 00.218.226h.008a1.442 1.442 0 01.17-.008c.2.008.266.153.266.371v.63c0 .541-.008 1.033-.016 1.655a.128.128 0 01-.129.145c-.129 0-.17-.008-.274-.008h-.008a.222.222 0 00-.234.226.209.209 0 00.242.21c.186-.008.4-.016.622-.016s.452.008.662.016zm3.657-3.245a.21.21 0 00.226-.218.208.208 0 00-.226-.21h-.718c-.1 0-.121 0-.121-.089 0 0 .016-.646.016-.88a.229.229 0 00-.234-.25.229.229 0 00-.234.234v.2c0 .283-.008.67-.008.7 0 .073-.016.081-.089.081h-.468a.208.208 0 00-.226.21.21.21 0 00.226.218h.476c.057 0 .081.008.081.089v.129c0 .4-.016 1.38-.016 1.9 0 .355 0 1.235 1.033 1.235.323 0 .517-.04.517-.25a.2.2 0 00-.194-.21h-.032c-.081.008-.153.016-.226.016-.63 0-.646-.428-.646-1.058 0-.6.024-1.429.024-1.736 0-.1 0-.113.129-.113z" fill="#f1f1f1"/></g></svg>