<svg xmlns="http://www.w3.org/2000/svg" width="88" height="70.929"><g data-name="前面オブジェクトで型抜き 2" fill="#a3a3a3"><path d="M74.056 13.75H30.607v-1.947c0-1.067.195-2.1.578-3.073a7.874 7.874 0 011.57-2.495 7.221 7.221 0 012.304-1.666 6.735 6.735 0 012.798-.605h27.065l9.134 9.786z"/><path d="M71.755 12.75l-7.267-7.786H37.857c-.827 0-1.63.174-2.386.516-.74.336-1.409.82-1.985 1.438a6.878 6.878 0 00-1.37 2.179 7.337 7.337 0 00-.509 2.706v.947h40.148m4.601 2H29.607v-2.947c0-1.193.218-2.35.648-3.44a8.87 8.87 0 011.768-2.81 8.216 8.216 0 012.623-1.894 7.729 7.729 0 013.21-.695h27.5l11 11.786z" fill="#d7d7d7"/></g><g data-name="前面オブジェクトで型抜き 1" fill="#bdbdbd"><path d="M60.235 12.572H16.786v-1.947c0-1.067.195-2.1.578-3.073a7.874 7.874 0 011.57-2.495 7.221 7.221 0 012.304-1.666 6.735 6.735 0 012.798-.605H51.1l9.134 9.786z"/><path d="M57.934 11.572l-7.267-7.786H24.036c-.827 0-1.63.174-2.386.516-.74.336-1.409.82-1.985 1.438a6.878 6.878 0 00-1.37 2.179 7.337 7.337 0 00-.509 2.706v.947h40.148m4.601 2H15.786v-2.947c0-1.193.218-2.35.648-3.44a8.87 8.87 0 011.768-2.81 8.216 8.216 0 012.623-1.894 7.729 7.729 0 013.21-.695h27.5l11 11.786z" fill="#d7d7d7"/></g><g data-name="合体 1" fill="#c9c8c8"><path d="M86 69.929H2c-.551 0-1-.449-1-1V8.838C1 4.517 4.252 1 8.25 1h27.065l6.908 7.4.296.318H86a1 1 0 011 1v59.21c0 .552-.448 1.001-1 1.001z"/><path d="M86 68.929V9.718H42.084l-.592-.636L34.88 2H8.25C4.803 2 2 5.068 2 8.839v60.09h84m0 2H2a2 2 0 01-2-2V8.838C0 3.957 3.694 0 8.25 0h27.5l7.204 7.718H86a2 2 0 012 2v59.21a2 2 0 01-2 2.001z" fill="#d7d7d7"/></g></svg>